<svg width="100" height="60" viewBox="0 0 100 60" fill="none" xmlns="http://www.w3.org/2000/svg">
<path d="M14.397 38.8603L4 10.7611H10.3024L15.1196 24.5701C17.0464 29.9894 17.9697 32.719 18.0096 32.7992H18.1301C18.1704 32.719 19.0534 30.0287 20.9403 24.6905L25.7974 10.7611H31.8192L21.4219 38.8609L14.397 38.8603Z" fill="#002B50"/>
<path d="M80.3222 33.6819H94.854V38.8603H74.7424V10.7611H80.3219L80.3222 33.6819Z" fill="#002B50"/>
<path d="M54.2803 5H48.6606V21.3781H54.2803V5Z" fill="#A1851C"/>
<path d="M56.2209 10.879V16.656C58.8719 18.1649 60.5835 21.0247 60.5835 24.8107C60.5835 30.5509 56.6493 34.1236 51.471 34.1236C46.2926 34.1236 42.3578 30.5119 42.3578 24.8097C42.3578 21.0238 44.0694 18.164 46.7205 16.655V10.8794C40.7625 12.6683 36.7378 17.8608 36.7378 24.8104C36.7378 33.441 42.9999 39.3819 51.4703 39.3819C59.9408 39.3819 66.2026 33.441 66.2026 24.8104C66.2026 17.8608 62.1779 12.6683 56.2209 10.879Z" fill="#002B50"/>
<path d="M17.8121 54.8476L14.7771 47.7363H15.8692L17.355 51.2156C18.0789 52.9173 18.3962 53.7172 18.4091 53.7426H18.4346C18.4471 53.7172 18.7393 52.9553 19.4758 51.2298L20.9487 47.7376H22.0028L18.9552 54.8489L17.8121 54.8476Z" fill="#A1851C"/>
<path d="M23.4507 47.7363H28.4412V48.6632H24.441V50.7202H27.5269V51.6222H24.441V53.9205H28.5043V54.8476H23.4507V47.7363Z" fill="#A1851C"/>
<path d="M33.3302 48.6632V54.8486H32.3396V48.6632H29.8635V47.7363H35.8192V48.6632H33.3302Z" fill="#A1851C"/>
<path d="M40.2513 47.5965C40.9819 47.6028 41.6942 47.825 42.2987 48.2353C42.9032 48.6455 43.3727 49.2255 43.6483 49.9021C43.9238 50.5787 43.993 51.3217 43.8471 52.0375C43.7012 52.7534 43.3468 53.4101 42.8284 53.9249C42.3101 54.4397 41.651 54.7896 40.9342 54.9306C40.2173 55.0716 39.4748 54.9973 38.8001 54.7172C38.1254 54.437 37.5487 53.9635 37.1426 53.3562C36.7364 52.749 36.5191 52.0351 36.5178 51.3046C36.5063 50.8123 36.5951 50.3228 36.779 49.866C36.9629 49.4093 37.2379 48.9947 37.5872 48.6477C37.9366 48.3007 38.353 48.0286 38.8111 47.8479C39.2691 47.6671 39.7591 47.5816 40.2513 47.5965ZM40.2513 54.0854C40.8053 54.0969 41.3502 53.943 41.8164 53.6434C42.2825 53.3438 42.6488 52.912 42.8685 52.4033C43.0882 51.8946 43.1513 51.3319 43.0497 50.7872C42.9482 50.2424 42.6866 49.7403 42.2984 49.3449C41.9101 48.9495 41.4129 48.6787 40.8701 48.5672C40.3273 48.4556 39.7636 48.5084 39.2509 48.7187C38.7382 48.929 38.2998 49.2873 37.9917 49.7479C37.6836 50.2085 37.5198 50.7504 37.521 51.3046C37.5056 51.6696 37.5653 52.0339 37.6964 52.3749C37.8275 52.7159 38.0272 53.0263 38.2832 53.287C38.5391 53.5477 38.8459 53.7531 39.1844 53.8904C39.523 54.0277 39.8861 54.0941 40.2513 54.0854Z" fill="#A1851C"/>
<path d="M48.2771 52.0284C47.9981 52.041 47.6421 52.041 47.4901 52.041H46.703V54.8473H45.7124V47.7363H48.049C49.8141 47.7363 50.8299 48.5095 50.8299 49.8822C50.8496 50.3491 50.6978 50.807 50.4031 51.1696C50.1083 51.5321 49.6911 51.7743 49.23 51.8503L51.0586 54.8463H49.979L48.2771 52.0284ZM48.087 51.2411C49.23 51.2411 49.8267 50.8223 49.8267 49.9457C49.8267 49.0314 49.1788 48.6377 48.087 48.6377H46.7017V51.2408L48.087 51.2411Z" fill="#A1851C"/>
<path d="M59.4266 47.5965C60.1571 47.6028 60.8695 47.825 61.474 48.2353C62.0784 48.6455 62.548 49.2255 62.8235 49.9021C63.0991 50.5787 63.1683 51.3217 63.0224 52.0375C62.8765 52.7534 62.522 53.4101 62.0037 53.9249C61.4854 54.4397 60.8263 54.7896 60.1095 54.9306C59.3926 55.0716 58.6501 54.9973 57.9754 54.7172C57.3007 54.437 56.724 53.9635 56.3179 53.3562C55.9117 52.749 55.6944 52.0351 55.6931 51.3046C55.6816 50.8123 55.7704 50.3228 55.9543 49.866C56.1382 49.4093 56.4132 48.9947 56.7625 48.6477C57.1119 48.3007 57.5283 48.0286 57.9863 47.8479C58.4444 47.6671 58.9344 47.5816 59.4266 47.5965ZM59.4266 54.0854C59.9806 54.0969 60.5255 53.943 60.9916 53.6434C61.4578 53.3438 61.8241 52.912 62.0438 52.4033C62.2635 51.8946 62.3265 51.3319 62.225 50.7872C62.1235 50.2424 61.8619 49.7403 61.4737 49.3449C61.0854 48.9495 60.5882 48.6787 60.0454 48.5672C59.5026 48.4556 58.9389 48.5084 58.4262 48.7187C57.9135 48.929 57.4751 49.2873 57.167 49.7479C56.8589 50.2085 56.695 50.7504 56.6963 51.3046C56.6809 51.6696 56.7406 52.0339 56.8717 52.3749C57.0028 52.7159 57.2025 53.0263 57.4585 53.287C57.7144 53.5477 58.0212 53.7531 58.3597 53.8904C58.6983 54.0277 59.0614 54.0941 59.4266 54.0854Z" fill="#A1851C"/>
<path d="M69.9153 54.8476L65.8757 49.2476H65.8506C65.8506 49.2601 65.8757 50.0208 65.8757 50.8729V54.8473H64.8867V47.7363H65.9025L69.9278 53.2475H69.9529C69.9529 53.2349 69.9404 52.511 69.9404 51.724V47.7363H70.931V54.8476H69.9153Z" fill="#A1851C"/>
<path d="M73.1411 47.7363H74.1314V53.9217H77.8394V54.8489H73.1411V47.7363Z" fill="#A1851C"/>
<path d="M79.5281 47.7363H80.5187V54.8476H79.5281V47.7363Z" fill="#A1851C"/>
<path d="M87.7571 54.8476L83.7188 49.2476H83.6937C83.6937 49.2601 83.7188 50.0208 83.7188 50.8729V54.8473H82.7285V47.7363H83.7436L87.7706 53.2475H87.796C87.796 53.2349 87.7832 52.511 87.7832 51.724V47.7363H88.7738V54.8476H87.7571Z" fill="#A1851C"/>
<path d="M90.9824 47.7363H95.9729V48.6632H91.9727V50.7202H95.0587V51.6222H91.9727V53.9205H96.0361V54.8476H90.9824V47.7363Z" fill="#A1851C"/>
</svg>
